<svg width="454" height="554" viewBox="0 0 454 554" fill="none" xmlns="http://www.w3.org/2000/svg">
<g style="mix-blend-mode:luminosity">
<path d="M306.664 0.0147705C282.761 0.465088 259.64 8.83636 239.197 20.8156C215.084 34.9357 193.198 53.2987 171.642 70.9123C166.253 75.3083 160.955 79.8243 155.595 84.248C154.181 85.4531 152.766 86.5974 151.35 87.7711C149.424 89.3361 148.37 91.2924 148.791 93.5513C149.333 96.2901 150.898 98.549 154.06 98.9107C157.072 99.2724 160.082 99.5419 163.092 99.8427C163.153 99.8741 163.212 99.8741 163.304 99.8741C170.559 100.596 177.754 100.717 184.98 99.4514C185.731 99.3315 186.454 99.2724 187.115 99.3019C191.12 99.4219 193.076 102.251 191.42 106.738C190.457 109.325 189.734 112.036 188.65 114.564C183.743 125.885 179.017 137.294 173.75 148.463C166.131 164.661 158.696 180.464 147.045 194.164C146.956 194.254 146.864 194.374 146.715 194.525C146.504 194.765 146.294 195.036 146.052 195.278C110.437 236.522 59.9806 262.472 27.0159 306.096C13.3184 324.249 0.372134 344.208 0.012258 367.631C-0.080018 374.314 0.342599 381.087 1.48682 387.652C3.80295 401.288 8.40935 414.203 15.1234 426.367C22.0773 438.95 30.3877 450.48 39.9918 461.137C42.76 464.207 45.198 467.52 46.5544 471.494C48.0585 475.829 48.9315 480.073 45.5597 484.108C44.2641 485.643 43.334 487.479 42.3079 489.225C40.0508 493.171 40.5325 497.988 43.9338 500.996C47.217 503.857 50.6478 506.658 54.3813 508.886C88.9719 529.508 129.854 543.266 168.632 553.592C176.276 555.638 183.202 549.738 182.99 541.579C182.689 530.019 173.207 521.98 163.723 516.923C152.766 511.111 140.602 508.373 128.802 504.82C125.581 503.857 122.269 503.286 118.987 502.532C118.987 502.473 118.956 502.441 118.956 502.382C118.897 502.172 118.867 501.93 118.807 501.72C120.041 500.937 121.305 500.184 122.54 499.402C143.704 485.702 166.102 473.149 186.151 457.857C187.477 456.864 188.351 456.591 189.885 456.953C202.137 459.904 214.392 462.823 226.674 465.713L226.886 465.743L231.04 466.435C233.511 474.535 235.986 482.631 238.463 490.729C240.334 496.849 242.288 502.973 244.221 509.052C247.888 520.583 250.263 532.671 257.848 542.469C259.852 545.056 262.274 547.481 265.352 548.594C269.56 550.115 274.041 548.937 278.304 548.35C282.58 547.76 286.9 547.5 291.189 546.907C297.091 546.095 301.576 542.934 304.468 537.635C307.207 532.669 307.146 527.37 306.544 521.95C305.972 516.593 303.383 512.226 299.588 508.585C294.742 503.888 288.873 500.815 282.399 498.981C281.103 498.588 280.651 498.047 280.622 496.751C280.592 493.171 280.411 489.587 280.321 486.005C280.321 468.725 279.721 451.322 278.817 434.074C276.92 397.645 281.166 388.645 281.797 388.312C282.008 408.875 283.663 427.661 284.656 436.089C286.553 452.378 289.565 468.843 293.057 484.619C294.502 491.182 296.248 497.744 301.033 502.864C303.442 505.483 305.913 507.981 310.067 507.681C315.395 507.289 320.723 507.348 326.051 507.11C327.647 507.048 329.303 506.808 330.838 506.355C342.188 503.194 344.176 488.081 339.237 479.985C335.233 473.42 328.941 469.87 321.657 467.098C321.867 464.721 322.109 462.403 322.259 460.055C323.794 432.297 324.816 404.961 330.266 377.595C335.565 350.863 343.513 324.4 352.333 298.901C358.626 280.685 366.483 259.883 362.659 240.405C360.221 228.033 352.996 215.9 346.915 205C340.382 193.2 332.675 180.796 333.247 166.767C333.548 158.759 336.648 151.113 340.322 143.947C343.663 137.384 347.455 129.677 352.484 124.198C353.869 122.694 355.495 121.459 357.272 120.374C360.824 118.207 364.918 116.702 368.651 115.227C382.258 109.869 394.271 101.199 406.161 92.7079C416.579 85.3037 427.147 77.8662 435.847 68.5039C444.999 58.6599 451.742 46.4961 453.158 32.95C453.759 26.8985 453.065 21.3896 449.664 16.331C445.691 10.37 438.375 11.9959 432.204 12.4481C423.925 13.0201 415.675 13.8322 407.457 14.9155C397.884 16.1206 387.498 18.9812 377.835 16.9917C353.821 12.09 333.051 0.00183105 308.109 0C307.629 0 307.149 0.0055542 306.664 0.0147705ZM208.069 426.786L201.205 426.607L208.611 419.743C209.695 418.719 210.778 417.726 211.893 416.733C213.729 415.017 215.143 414.866 216.228 416.311C216.228 416.34 216.257 416.372 216.257 416.401C216.558 416.792 216.8 417.304 217.04 417.907C217.793 419.954 218.575 421.969 219.36 424.169C219.448 424.44 219.568 424.71 219.661 424.981C220.441 427.059 220.864 428.233 220.864 428.233C216.228 427.749 212.103 427.45 208.069 426.786Z" fill="black"/>
<path d="M38.8052 490.006C39.3275 490.528 39.5637 490.812 39.5637 490.812L39.1374 488.917C38.9473 489.295 38.8513 489.674 38.8052 490.006Z" fill="black"/>
<path d="M300.612 232.849C327.467 280.475 281.797 388.312 281.797 388.312C282.008 408.875 283.663 427.66 284.656 436.089C286.553 452.378 289.565 468.843 293.057 484.619C294.502 491.181 296.248 497.744 301.033 502.864C303.442 505.482 305.913 507.981 310.067 507.68C315.395 507.289 320.723 507.348 326.051 507.11C327.647 507.047 329.303 506.807 330.838 506.355C342.188 503.194 344.176 488.081 339.237 479.985C335.233 473.42 328.941 469.869 321.657 467.097C321.867 464.72 322.109 462.402 322.259 460.055C323.794 432.296 324.816 404.961 330.266 377.595C335.565 350.863 343.513 324.4 352.333 298.9C358.626 280.685 366.483 259.882 362.659 240.405C360.221 228.032 352.996 215.9 346.915 205C340.382 193.2 332.675 180.796 333.247 166.767C333.548 158.759 336.648 151.113 340.322 143.947C343.663 137.384 347.455 129.677 352.484 124.198C353.869 122.694 355.495 121.459 357.272 120.374C356.617 120.119 355.849 119.994 354.972 119.994C336.148 120.001 269.543 177.759 300.612 232.849Z" fill="black"/>
<path d="M123.081 375.277C127.839 398.97 159.238 428.563 146.776 458.187C136.69 482.271 116.819 502.411 116.819 502.502L116.638 502.592L118.956 502.382C118.897 502.172 118.868 501.93 118.807 501.719C120.041 500.937 121.306 500.184 122.54 499.401C143.705 485.702 166.102 473.149 186.152 457.857C187.477 456.864 188.351 456.591 189.885 456.953C202.137 459.904 214.392 462.823 226.674 465.713L226.886 465.743L231.04 466.435L220.864 428.233C216.228 427.749 212.103 427.45 208.069 426.786L201.205 426.607L208.612 419.743C209.695 418.719 210.778 417.726 211.893 416.733C213.729 415.017 215.143 414.865 216.228 416.311C207.377 394.664 187.176 350.499 167.156 343.396C162.134 341.608 157.275 340.786 152.722 340.786C133.119 340.788 119.246 356.051 123.081 375.277Z" fill="black"/>
<path d="M151.35 87.771C149.44 89.3582 148.37 91.2923 148.791 93.5512C149.333 96.29 150.898 98.5489 154.06 98.9106C157.071 99.2723 160.081 99.5418 163.091 99.8426C163.152 99.874 163.211 99.874 163.304 99.874C170.558 100.596 177.754 100.717 184.979 99.4513C185.73 99.3314 186.454 99.2723 187.115 99.3019C191.119 99.4218 193.076 102.251 191.42 106.737C190.457 109.325 189.733 112.036 188.65 114.564C183.743 125.885 179.016 137.294 173.749 148.463C166.131 164.661 158.695 180.464 147.045 194.163C146.956 194.254 146.864 194.374 146.775 194.464L146.714 194.525C146.504 194.765 146.294 195.036 146.052 195.278L146.081 195.367C172.363 168.062 241.847 95.3561 226.221 78.8608C222.733 75.1717 215.761 73.7322 207.393 73.7322C186.805 73.7322 157.765 82.4412 151.35 87.771Z" fill="black"/>
</g>
</svg>
