<svg width="23" height="18" viewBox="0 0 23 18" fill="#fff" xmlns="http://www.w3.org/2000/svg">
<path d="M19.4705 1.4921C18.0045 0.801473 16.4325 0.292648 14.7889 0.00122249C14.759 -0.00440192 14.7291 0.0096538 14.7137 0.0377659C14.5115 0.406965 14.2875 0.888616 14.1307 1.26719C12.3629 0.99545 10.6041 0.99545 8.87256 1.26719C8.71571 0.880201 8.48363 0.406965 8.28055 0.0377659C8.26513 0.0105918 8.23523 -0.00346397 8.2053 0.00122249C6.56258 0.291716 4.99058 0.800541 3.52373 1.4921C3.51103 1.49772 3.50015 1.5071 3.49292 1.51928C0.511167 6.09311 -0.305661 10.5545 0.0950476 14.9606C0.0968607 14.9822 0.108646 15.0028 0.124965 15.0159C2.09224 16.4993 3.99789 17.3998 5.86814 17.9967C5.89807 18.0061 5.92979 17.9949 5.94884 17.9695C6.39125 17.3492 6.78562 16.6952 7.12375 16.0073C7.1437 15.967 7.12465 15.9192 7.08387 15.9033C6.45834 15.6597 5.8627 15.3626 5.28974 15.0253C5.24442 14.9981 5.24079 14.9316 5.28249 14.8997C5.40306 14.8069 5.52366 14.7104 5.63879 14.613C5.65962 14.5952 5.68865 14.5914 5.71314 14.6026C9.47723 16.3672 13.5523 16.3672 17.272 14.6026C17.2965 14.5905 17.3255 14.5942 17.3472 14.612C17.4624 14.7095 17.583 14.8069 17.7045 14.8997C17.7462 14.9316 17.7434 14.9981 17.6981 15.0253C17.1252 15.3692 16.5295 15.6597 15.9031 15.9024C15.8623 15.9183 15.8442 15.967 15.8641 16.0073C16.2095 16.6942 16.6039 17.3483 17.0381 17.9686C17.0562 17.9949 17.0889 18.0061 17.1188 17.9967C18.9981 17.3998 20.9038 16.4993 22.871 15.0159C22.8883 15.0028 22.8992 14.9831 22.901 14.9616C23.3805 9.86763 22.0977 5.4428 19.5004 1.52021C19.494 1.5071 19.4832 1.49772 19.4705 1.4921ZM7.68586 12.2778C6.5526 12.2778 5.61884 11.2095 5.61884 9.89763C5.61884 8.58572 6.53449 7.51748 7.68586 7.51748C8.84625 7.51748 9.77098 8.5951 9.75284 9.89763C9.75284 11.2095 8.83718 12.2778 7.68586 12.2778ZM15.3283 12.2778C14.1951 12.2778 13.2613 11.2095 13.2613 9.89763C13.2613 8.58572 14.1769 7.51748 15.3283 7.51748C16.4887 7.51748 17.4134 8.5951 17.3953 9.89763C17.3953 11.2095 16.4887 12.2778 15.3283 12.2778Z" fill="#0D0D0D"/>
</svg>
