<svg xmlns="http://www.w3.org/2000/svg" width="30" height="30" fill="none" viewBox="0 0 30 30"><path fill="#fff" fill-rule="evenodd" d="M14.9986 0C6.71567 0 0 6.88561 0 15.3801C0 22.1751 4.29755 27.939 10.2581 29.9737C11.0086 30.1144 11.2821 29.6395 11.2821 29.2316C11.2821 28.8672 11.2692 27.8994 11.2619 26.6163C7.08953 27.5453 6.20921 24.5543 6.20921 24.5543C5.52687 22.7774 4.54341 22.3044 4.54341 22.3044C3.18149 21.3508 4.64654 21.3697 4.64654 21.3697C6.15211 21.4783 6.94403 22.9549 6.94403 22.9549C8.28201 25.3049 10.4552 24.6261 11.3097 24.2323C11.446 23.2391 11.8328 22.5612 12.2619 22.177C8.93121 21.7889 5.42926 20.469 5.42926 14.5757C5.42926 12.897 6.014 11.5242 6.97351 10.4488C6.81881 10.0598 6.30406 8.49632 7.11992 6.37861C7.11992 6.37861 8.37962 5.96509 11.2453 7.95534C12.4414 7.61356 13.7251 7.44361 15.0005 7.43795C16.274 7.44361 17.5576 7.61356 18.7556 7.95534C21.6194 5.96509 22.8764 6.37861 22.8764 6.37861C23.695 8.49632 23.1803 10.0598 23.0256 10.4488C23.9869 11.5242 24.568 12.897 24.568 14.5757C24.568 20.4841 21.0605 21.7842 17.7188 22.1647C18.2575 22.6396 18.7372 23.5781 18.7372 25.0132C18.7372 27.0686 18.7188 28.7274 18.7188 29.2316C18.7188 29.6432 18.9886 30.1219 19.7501 29.9718C25.7061 27.9334 30 22.1732 30 15.3801C30 6.88561 23.2834 0 14.9986 0Z" clip-rule="evenodd"/></svg>