<svg width="30" height="30" viewBox="0 0 30 30" fill="none" xmlns="http://www.w3.org/2000/svg">
<path d="M15 2.70276C19.0052 2.70276 19.4795 2.718 21.0612 2.79017C22.5237 2.85691 23.318 3.10128 23.8466 3.30664C24.5467 3.57875 25.0464 3.90385 25.5713 4.42872C26.0961 4.95359 26.4213 5.45333 26.6933 6.15343C26.8987 6.68205 27.1431 7.47629 27.2098 8.93871C27.282 10.5205 27.2972 10.9948 27.2972 15C27.2972 19.0052 27.282 19.4796 27.2098 21.0613C27.1431 22.5238 26.8987 23.318 26.6933 23.8466C26.4213 24.5467 26.0961 25.0465 25.5713 25.5713C25.0464 26.0962 24.5467 26.4213 23.8466 26.6934C23.318 26.8988 22.5237 27.1431 21.0612 27.2099C19.4798 27.2821 19.0054 27.2973 15 27.2973C10.9945 27.2973 10.5202 27.2821 8.93871 27.2099C7.47623 27.1431 6.68199 26.8988 6.15343 26.6934C5.45327 26.4213 4.95353 26.0962 4.42866 25.5713C3.90379 25.0465 3.57869 24.5467 3.30664 23.8466C3.10122 23.318 2.85685 22.5238 2.79011 21.0613C2.71794 19.4796 2.7027 19.0052 2.7027 15C2.7027 10.9948 2.71794 10.5205 2.79011 8.93877C2.85685 7.47629 3.10122 6.68205 3.30664 6.15343C3.57869 5.45333 3.90379 4.95359 4.42866 4.42872C4.95353 3.90385 5.45327 3.57875 6.15343 3.30664C6.68199 3.10128 7.47623 2.85691 8.93865 2.79017C10.5204 2.718 10.9948 2.70276 15 2.70276ZM15 0C10.9262 0 10.4154 0.0172674 8.81552 0.0902666C7.21888 0.163147 6.12854 0.416679 5.17437 0.78751C4.18799 1.17085 3.35147 1.68375 2.51758 2.51764C1.68369 3.35153 1.17079 4.18805 0.787451 5.17443C0.41662 6.1286 0.163087 7.21894 0.090207 8.81558C0.0172078 10.4154 0 10.9262 0 15C0 19.0738 0.0172078 19.5846 0.090207 21.1845C0.163087 22.7811 0.41662 23.8715 0.787451 24.8256C1.17079 25.812 1.68369 26.6485 2.51758 27.4824C3.35147 28.3163 4.18799 28.8292 5.17437 29.2125C6.12854 29.5834 7.21888 29.8369 8.81552 29.9098C10.4154 29.9828 10.9262 30 15 30C19.0738 30 19.5846 29.9828 21.1844 29.9098C22.7811 29.8369 23.8714 29.5834 24.8256 29.2125C25.812 28.8292 26.6485 28.3163 27.4824 27.4824C28.3163 26.6485 28.8292 25.812 29.2125 24.8256C29.5833 23.8715 29.8369 22.7811 29.9097 21.1845C29.9827 19.5846 30 19.0738 30 15C30 10.9262 29.9827 10.4154 29.9097 8.81558C29.8369 7.21894 29.5833 6.1286 29.2125 5.17443C28.8292 4.18805 28.3163 3.35153 27.4824 2.51764C26.6485 1.68375 25.812 1.17085 24.8256 0.78751C23.8714 0.416679 22.7811 0.163147 21.1844 0.0902666C19.5846 0.0172674 19.0738 0 15 0ZM15 7.2973C10.7459 7.2973 7.29724 10.746 7.29724 15C7.29724 19.2541 10.7459 22.7028 15 22.7028C19.2541 22.7028 22.7027 19.2541 22.7027 15C22.7027 10.746 19.2541 7.2973 15 7.2973ZM15 20.0001C12.2386 20.0001 9.99994 17.7614 9.99994 15C9.99994 12.2386 12.2386 10 15 10C17.7614 10 20 12.2386 20 15C20 17.7614 17.7614 20.0001 15 20.0001ZM24.807 6.99298C24.807 7.9871 24.0011 8.79301 23.007 8.79301C22.0129 8.79301 21.207 7.9871 21.207 6.99298C21.207 5.99886 22.0129 5.19301 23.007 5.19301C24.0011 5.19301 24.807 5.99886 24.807 6.99298Z" fill="black"/>
</svg>
