<svg width="39" height="47" viewBox="0 0 39 47" fill="none" xmlns="http://www.w3.org/2000/svg">
<path d="M26.0166 0.00125122C23.9887 0.0394554 22.0272 0.749653 20.2929 1.76595C18.2472 2.96386 16.3904 4.52172 14.5617 6.01603C14.1045 6.38897 13.655 6.77209 13.2003 7.14739C13.0804 7.24963 12.9603 7.34671 12.8402 7.44628C12.6767 7.57906 12.5873 7.74502 12.623 7.93666C12.6691 8.16901 12.8018 8.36065 13.07 8.39134C13.3256 8.42202 13.5809 8.44489 13.8363 8.47041C13.8415 8.47307 13.8465 8.47307 13.8543 8.47307C14.4698 8.53429 15.0802 8.54462 15.6932 8.43721C15.7569 8.42704 15.8183 8.42203 15.8744 8.42453C16.2141 8.43471 16.3801 8.67473 16.2396 9.05535C16.1579 9.27486 16.0965 9.50486 16.0046 9.71936C15.5883 10.6798 15.1873 11.6477 14.7405 12.5952C14.0942 13.9694 13.4633 15.3101 12.4749 16.4724C12.4674 16.48 12.4596 16.4902 12.4469 16.503C12.429 16.5234 12.4112 16.5464 12.3907 16.5669C9.36921 20.0659 5.0886 22.2675 2.29196 25.9684C1.1299 27.5085 0.031571 29.2018 0.00103994 31.1889C-0.00678853 31.7559 0.0290652 32.3305 0.126138 32.8874C0.322633 34.0443 0.713429 35.14 1.28303 36.1719C1.87298 37.2394 2.57801 38.2177 3.3928 39.1217C3.62766 39.3822 3.83448 39.6633 3.94956 40.0004C4.07717 40.3681 4.15122 40.7283 3.86517 41.0705C3.75526 41.2008 3.67635 41.3566 3.5893 41.5047C3.39781 41.8394 3.43868 42.2481 3.72723 42.5033C4.00577 42.746 4.29683 42.9836 4.61357 43.1726C7.54815 44.9221 11.0165 46.0893 14.3063 46.9654C14.9548 47.139 15.5424 46.6384 15.5244 45.9462C15.4989 44.9655 14.6945 44.2835 13.8898 43.8545C12.9603 43.3614 11.9283 43.1291 10.9272 42.8277C10.654 42.746 10.373 42.6976 10.0946 42.6335C10.0946 42.6285 10.0919 42.6259 10.0919 42.6209C10.0869 42.603 10.0844 42.5825 10.0793 42.5647C10.184 42.4983 10.2913 42.4344 10.396 42.368C12.1915 41.2058 14.0917 40.1408 15.7926 38.8435C15.905 38.7592 15.9793 38.7361 16.1094 38.7667C17.1488 39.0171 18.1885 39.2648 19.2304 39.51L19.2484 39.5125L19.6009 39.5712C19.8105 40.2584 20.0205 40.9453 20.2306 41.6323C20.3893 42.1515 20.5552 42.671 20.7191 43.1867C21.0302 44.165 21.2317 45.1905 21.8752 46.0217C22.0452 46.2412 22.2506 46.447 22.5118 46.5414C22.8688 46.6704 23.2489 46.5705 23.6106 46.5207C23.9734 46.4706 24.3399 46.4485 24.7038 46.3983C25.2045 46.3294 25.5849 46.0612 25.8303 45.6117C26.0626 45.1903 26.0575 44.7408 26.0064 44.281C25.9579 43.8264 25.7382 43.456 25.4163 43.1471C25.0052 42.7486 24.5073 42.4879 23.958 42.3323C23.8481 42.299 23.8098 42.2531 23.8073 42.1432C23.8048 41.8394 23.7894 41.5354 23.7817 41.2315C23.7817 39.7655 23.7309 38.2891 23.6541 36.8258C23.4932 33.7352 23.8534 32.9716 23.907 32.9435C23.9248 34.688 24.0653 36.2817 24.1495 36.9967C24.3105 38.3786 24.566 39.7755 24.8622 41.1139C24.9848 41.6706 25.1329 42.2274 25.5389 42.6617C25.7432 42.8839 25.9529 43.0959 26.3053 43.0704C26.7573 43.0372 27.2094 43.0422 27.6614 43.022C27.7968 43.0167 27.9372 42.9963 28.0675 42.958C29.0304 42.6898 29.199 41.4076 28.7801 40.7207C28.4403 40.1638 27.9066 39.8626 27.2886 39.6274C27.3064 39.4258 27.3269 39.2291 27.3396 39.0299C27.4699 36.675 27.5566 34.3559 28.019 32.0343C28.4685 29.7664 29.1428 27.5213 29.8911 25.358C30.425 23.8126 31.0915 22.0478 30.7671 20.3954C30.5603 19.3457 29.9473 18.3164 29.4314 17.3917C28.8771 16.3906 28.2233 15.3383 28.2718 14.1481C28.2974 13.4687 28.5604 12.8201 28.8721 12.2121C29.1555 11.6553 29.4773 11.0015 29.9039 10.5367C30.0213 10.409 30.1593 10.3043 30.3101 10.2122C30.6115 10.0284 30.9587 9.90067 31.2755 9.77557C32.4298 9.32105 33.449 8.58548 34.4577 7.86511C35.3416 7.23695 36.2381 6.60598 36.9762 5.8117C37.7526 4.97655 38.3247 3.94461 38.4448 2.79539C38.4958 2.282 38.4369 1.81464 38.1484 1.38548C37.8113 0.879761 37.1907 1.0177 36.6671 1.05606C35.9647 1.1046 35.2649 1.17349 34.5676 1.26539C33.7555 1.36763 32.8744 1.61032 32.0546 1.44153C30.0173 1.02568 28.2552 0.000156403 26.1392 0C26.0985 0 26.0578 0.000469208 26.0166 0.00125122ZM17.652 36.2075L17.0698 36.1923L17.6981 35.61C17.79 35.5231 17.8819 35.4389 17.9765 35.3546C18.1322 35.209 18.2522 35.1962 18.3442 35.3188C18.3442 35.3213 18.3467 35.3239 18.3467 35.3264C18.3723 35.3596 18.3928 35.403 18.4131 35.4542C18.477 35.6278 18.5434 35.7988 18.6099 35.9855C18.6175 36.0085 18.6276 36.0313 18.6355 36.0543C18.7017 36.2306 18.7375 36.3302 18.7375 36.3302C18.3442 36.2892 17.9943 36.2638 17.652 36.2075Z" fill="white"/>
<path d="M3.29214 41.5709C3.33645 41.6152 3.35649 41.6393 3.35649 41.6393L3.32032 41.4785C3.30419 41.5106 3.29605 41.5427 3.29214 41.5709Z" fill="white"/>
<path d="M25.5032 19.7544C27.7815 23.7948 23.907 32.9434 23.907 32.9434C23.9249 34.6879 24.0653 36.2817 24.1495 36.9967C24.3105 38.3786 24.566 39.7755 24.8622 41.1139C24.9848 41.6706 25.1329 42.2274 25.5389 42.6617C25.7433 42.8839 25.9529 43.0959 26.3053 43.0704C26.7574 43.0372 27.2094 43.0422 27.6614 43.022C27.7968 43.0167 27.9373 42.9963 28.0675 42.9579C29.0304 42.6897 29.1991 41.4076 28.7801 40.7207C28.4403 40.1638 27.9066 39.8626 27.2886 39.6274C27.3064 39.4257 27.327 39.2291 27.3396 39.0299C27.4699 36.675 27.5566 34.3559 28.019 32.0342C28.4685 29.7663 29.1429 27.5213 29.8911 25.358C30.425 23.8126 31.0915 22.0478 30.7671 20.3953C30.5603 19.3457 29.9473 18.3164 29.4314 17.3917C28.8772 16.3906 28.2233 15.3383 28.2719 14.1481C28.2974 13.4687 28.5604 12.82 28.8721 12.2121C29.1555 11.6553 29.4773 11.0015 29.9039 10.5366C30.0214 10.409 30.1593 10.3043 30.3101 10.2122C30.2545 10.1906 30.1894 10.18 30.115 10.18C28.518 10.1806 22.8674 15.0806 25.5032 19.7544Z" fill="white"/>
<path d="M10.4419 31.8376C10.8455 33.8477 13.5094 36.3583 12.4521 38.8715C11.5964 40.9147 9.91062 42.6234 9.91062 42.6311L9.89528 42.6387L10.0919 42.6209C10.0869 42.603 10.0844 42.5825 10.0792 42.5647C10.184 42.4983 10.2912 42.4344 10.396 42.368C12.1915 41.2058 14.0917 40.1408 15.7926 38.8435C15.905 38.7593 15.9793 38.7361 16.1094 38.7668C17.1488 39.0171 18.1884 39.2648 19.2304 39.51L19.2484 39.5125L19.6009 39.5712L18.7375 36.3302C18.3442 36.2892 17.9943 36.2639 17.652 36.2075L17.0698 36.1923L17.6981 35.61C17.79 35.5231 17.8819 35.4389 17.9765 35.3547C18.1322 35.209 18.2522 35.1962 18.3442 35.3188C17.5933 33.4824 15.8795 29.7355 14.1811 29.1329C13.755 28.9812 13.3428 28.9115 12.9565 28.9115C11.2934 28.9117 10.1165 30.2065 10.4419 31.8376Z" fill="white"/>
<path d="M12.8402 7.44631C12.6781 7.58096 12.5873 7.74505 12.623 7.93669C12.6691 8.16904 12.8018 8.36068 13.07 8.39136C13.3255 8.42205 13.5809 8.44491 13.8363 8.47043C13.8414 8.47309 13.8465 8.47309 13.8543 8.47309C14.4698 8.53431 15.0802 8.54465 15.6932 8.43724C15.7569 8.42706 15.8183 8.42205 15.8743 8.42456C16.2141 8.43474 16.3801 8.67475 16.2396 9.05538C16.1579 9.27489 16.0965 9.50489 16.0046 9.71939C15.5883 10.6798 15.1873 11.6477 14.7405 12.5953C14.0941 13.9695 13.4633 15.3102 12.4749 16.4724C12.4674 16.4801 12.4596 16.4902 12.452 16.4979L12.4469 16.5031C12.429 16.5234 12.4112 16.5464 12.3907 16.567L12.3932 16.5745C14.6229 14.258 20.5177 8.08981 19.192 6.69039C18.8961 6.37741 18.3046 6.25529 17.5947 6.25529C15.848 6.25529 13.3844 6.99414 12.8402 7.44631Z" fill="white"/>
</svg>
