<svg width="124" height="124" viewBox="0 0 124 124" fill="none" xmlns="http://www.w3.org/2000/svg">
<rect width="124" height="124" fill="#282828"/>
<rect opacity="0.38" width="124" height="124" fill="url(#paint0_linear_56_490)"/>
<g style="mix-blend-mode:luminosity" opacity="0.95">
<path d="M70.1161 34.0015C67.6907 34.0472 65.3447 34.8966 63.2705 36.1121C60.8238 37.5448 58.6031 39.408 56.4159 41.1952C55.8691 41.6413 55.3315 42.0995 54.7877 42.5483C54.6442 42.6706 54.5006 42.7867 54.357 42.9058C54.1615 43.0646 54.0546 43.2631 54.0973 43.4923C54.1523 43.7702 54.3111 43.9994 54.6319 44.0361C54.9375 44.0728 55.2429 44.1002 55.5483 44.1307C55.5545 44.1339 55.5605 44.1339 55.5699 44.1339C56.306 44.2071 57.0361 44.2194 57.7692 44.091C57.8454 44.0788 57.9188 44.0728 57.9859 44.0758C58.3922 44.088 58.5907 44.375 58.4227 44.8303C58.325 45.0928 58.2516 45.3679 58.1417 45.6244C57.6437 46.7731 57.1642 47.9307 56.6297 49.064C55.8567 50.7076 55.1023 52.3111 53.9201 53.7011C53.9111 53.7103 53.9018 53.7224 53.8866 53.7378C53.8652 53.7621 53.8439 53.7896 53.8194 53.8142C50.2057 57.999 45.086 60.6321 41.7412 65.0585C40.3514 66.9003 39.0378 68.9255 39.0012 71.3022C38.9919 71.9803 39.0348 72.6675 39.1509 73.3336C39.3859 74.7173 39.8533 76.0277 40.5345 77.2619C41.2401 78.5386 42.0833 79.7086 43.0578 80.7899C43.3387 81.1015 43.5861 81.4376 43.7237 81.8407C43.8763 82.2806 43.9649 82.7113 43.6228 83.1207C43.4913 83.2765 43.3969 83.4628 43.2928 83.6399C43.0638 84.0403 43.1127 84.529 43.4578 84.8343C43.7909 85.1245 44.139 85.4088 44.5179 85.6348C48.0277 87.7272 52.1758 89.1232 56.1105 90.1709C56.8861 90.3786 57.5889 89.7799 57.5673 88.9521C57.5368 87.7791 56.5747 86.9634 55.6124 86.4503C54.5006 85.8606 53.2664 85.5827 52.0691 85.2223C51.7423 85.1245 51.4062 85.0666 51.0732 84.9901C51.0732 84.9841 51.07 84.9809 51.07 84.9749C51.064 84.9535 51.061 84.929 51.0549 84.9077C51.1801 84.8283 51.3084 84.7519 51.4337 84.6725C53.5812 83.2824 55.8537 82.0087 57.8881 80.4571C58.0226 80.3564 58.1113 80.3286 58.2669 80.3653C59.5101 80.6648 60.7535 80.961 61.9997 81.2543L62.0213 81.2573L62.4428 81.3275C62.6935 82.1493 62.9446 82.9709 63.1959 83.7925C63.3858 84.4135 63.5841 85.0348 63.7802 85.6516C64.1523 86.8216 64.3933 88.0482 65.1629 89.0423C65.3663 89.3049 65.612 89.5509 65.9243 89.6638C66.3512 89.8181 66.8059 89.6987 67.2385 89.6391C67.6724 89.5792 68.1107 89.5528 68.5459 89.4927C69.1448 89.4103 69.5998 89.0895 69.8932 88.5519C70.1711 88.048 70.1649 87.5104 70.1039 86.9604C70.0459 86.4168 69.7831 85.9737 69.3981 85.6043C68.9064 85.1277 68.3109 84.8159 67.654 84.6298C67.5225 84.5899 67.4767 84.535 67.4737 84.4036C67.4707 84.0403 67.4523 83.6766 67.4431 83.3132C67.4431 81.5599 67.3823 79.794 67.2905 78.0439C67.098 74.3476 67.5289 73.4344 67.593 73.4006C67.6143 75.4871 67.7823 77.3932 67.883 78.2484C68.0755 79.9011 68.3811 81.5718 68.7354 83.1725C68.882 83.8384 69.0592 84.5043 69.5447 85.0238C69.7891 85.2895 70.0399 85.543 70.4614 85.5125C71.002 85.4728 71.5426 85.4788 72.0832 85.4546C72.2452 85.4483 72.4132 85.4239 72.569 85.3781C73.7206 85.0573 73.9223 83.5238 73.4212 82.7023C73.0148 82.0362 72.3765 81.676 71.6374 81.3947C71.6587 81.1535 71.6832 80.9183 71.6984 80.6801C71.8542 77.8636 71.9579 75.0899 72.5109 72.3132C73.0485 69.6008 73.8551 66.9157 74.75 64.3284C75.3885 62.4801 76.1857 60.3693 75.7977 58.393C75.5503 57.1376 74.8172 55.9066 74.2002 54.8007C73.5373 53.6033 72.7553 52.3448 72.8133 50.9212C72.8439 50.1087 73.1585 49.3329 73.5313 48.6058C73.8702 47.9399 74.255 47.1579 74.7653 46.6019C74.9058 46.4493 75.0707 46.324 75.2511 46.2139C75.6115 45.9941 76.0269 45.8413 76.4057 45.6917C77.7864 45.1481 79.0052 44.2683 80.2117 43.4067C81.2688 42.6555 82.341 41.9008 83.2238 40.9508C84.1524 39.952 84.8366 38.7178 84.9803 37.3433C85.0413 36.7293 84.9709 36.1703 84.6258 35.6571C84.2226 35.0522 83.4803 35.2172 82.8541 35.2631C82.0141 35.3211 81.177 35.4035 80.3432 35.5134C79.3719 35.6357 78.318 35.926 77.3375 35.7241C74.9009 35.2267 72.7935 34.0002 70.2627 34C70.214 34 70.1653 34.0006 70.1161 34.0015V34.0015ZM60.112 77.3044L59.4156 77.2863L60.167 76.5898C60.277 76.4859 60.3869 76.3852 60.5 76.2844C60.6863 76.1103 60.8297 76.0949 60.9399 76.2415C60.9399 76.2445 60.9429 76.2477 60.9429 76.2507C60.9734 76.2904 60.9979 76.3423 61.0223 76.4035C61.0987 76.6112 61.1781 76.8157 61.2576 77.0389C61.2666 77.0664 61.2788 77.0937 61.2882 77.1213C61.3674 77.3321 61.4103 77.4512 61.4103 77.4512C60.9399 77.4022 60.5213 77.3718 60.112 77.3044Z" fill="white"/>
<path d="M42.9371 83.7193C42.9901 83.7722 43.0141 83.8011 43.0141 83.8011L42.9709 83.6088C42.9516 83.6472 42.9418 83.6855 42.9371 83.7193Z" fill="white"/>
<path d="M69.5029 57.6264C72.2277 62.4588 67.5938 73.4006 67.5938 73.4006C67.6151 75.4871 67.7831 77.3932 67.8839 78.2484C68.0764 79.9011 68.382 81.5718 68.7363 83.1725C68.8829 83.8384 69.06 84.5043 69.5456 85.0238C69.79 85.2895 70.0407 85.543 70.4622 85.5125C71.0028 85.4728 71.5434 85.4788 72.0841 85.4546C72.246 85.4483 72.414 85.4239 72.5698 85.3781C73.7214 85.0573 73.9231 83.5238 73.422 82.7023C73.0157 82.0362 72.3773 81.676 71.6382 81.3947C71.6595 81.1535 71.6841 80.9183 71.6992 80.6801C71.855 77.8636 71.9588 75.0899 72.5118 72.3132C73.0494 69.6008 73.8559 66.9157 74.7508 64.3284C75.3894 62.4801 76.1865 60.3693 75.7985 58.393C75.5511 57.1376 74.818 55.9066 74.201 54.8007C73.5381 53.6033 72.7561 52.3448 72.8142 50.9212C72.8447 50.1087 73.1593 49.3329 73.5321 48.6058C73.8711 47.9399 74.2559 47.1579 74.7662 46.6019C74.9066 46.4493 75.0716 46.324 75.2519 46.2139C75.1854 46.1881 75.1075 46.1754 75.0186 46.1754C73.1086 46.1761 66.3504 52.0365 69.5029 57.6264" fill="white"/>
<path d="M51.4894 72.0778C51.9721 74.4818 55.1581 77.4845 53.8936 80.4903C52.8702 82.9341 50.854 84.9776 50.854 84.9868L50.8356 84.996L51.0708 84.9746C51.0648 84.9533 51.0619 84.9287 51.0557 84.9074C51.1809 84.828 51.3092 84.7516 51.4345 84.6722C53.582 83.2822 55.8545 82.0084 57.8889 80.4568C58.0234 80.3561 58.1121 80.3284 58.2677 80.3651C59.5109 80.6645 60.7543 80.9607 62.0005 81.254L62.0221 81.257L62.4436 81.3272L61.4111 77.4509C60.9407 77.4019 60.5221 77.3715 60.1128 77.3041L59.4164 77.286L60.1678 76.5896C60.2778 76.4856 60.3877 76.3849 60.5008 76.2841C60.6871 76.11 60.8306 76.0946 60.9407 76.2413C60.0426 74.0449 57.9928 69.5636 55.9615 68.8429C55.4519 68.6614 54.9589 68.5781 54.4969 68.5781C52.5079 68.5783 51.1002 70.1269 51.4894 72.0778" fill="white"/>
<path d="M54.3564 42.9057C54.1626 43.0668 54.054 43.263 54.0967 43.4922C54.1517 43.7701 54.3105 43.9993 54.6313 44.036C54.9369 44.0727 55.2423 44.1001 55.5478 44.1306C55.5539 44.1338 55.5599 44.1338 55.5693 44.1338C56.3054 44.207 57.0355 44.2194 57.7686 44.0909C57.8449 44.0787 57.9183 44.0727 57.9853 44.0757C58.3916 44.0879 58.5901 44.375 58.4222 44.8302C58.3244 45.0927 58.251 45.3678 58.1411 45.6244C57.6432 46.773 57.1636 47.9306 56.6292 49.0639C55.8562 50.7075 55.1017 52.311 53.9195 53.701C53.9106 53.7102 53.9012 53.7223 53.8922 53.7315L53.886 53.7377C53.8647 53.762 53.8433 53.7896 53.8188 53.8141L53.8218 53.8231C56.4885 51.0526 63.5388 43.6754 61.9533 42.0017C61.5994 41.6273 60.8919 41.4813 60.0429 41.4813C57.9538 41.4813 55.0073 42.3649 54.3564 42.9057Z" fill="white"/>
</g>
<defs>
<linearGradient id="paint0_linear_56_490" x1="-6.38788" y1="-54.8462" x2="135.325" y2="-40.9175" gradientUnits="userSpaceOnUse">
<stop stop-color="#8BBAFF"/>
<stop offset="0.515625" stop-color="#6CE5FF"/>
<stop offset="1" stop-color="#78FFE7" stop-opacity="0.96"/>
</linearGradient>
</defs>
</svg>
