<svg xmlns="http://www.w3.org/2000/svg" width="167" height="102" fill="none" viewBox="0 0 167 102"><g opacity=".85"><g style="mix-blend-mode:luminosity"><g style="mix-blend-mode:luminosity"><path fill="#fff" d="M37.3 0.0017957C34.3926 0.0565423 31.5804 1.07427 29.0939 2.53062C26.161 4.24725 23.499 6.4797 20.8771 8.62104C20.2216 9.15548 19.5772 9.7045 18.9252 10.2423C18.7533 10.3888 18.5812 10.5279 18.4089 10.6706C18.1747 10.8609 18.0465 11.0987 18.0977 11.3733C18.1636 11.7063 18.3539 11.9809 18.7385 12.0249C19.1049 12.0689 19.471 12.1016 19.8371 12.1382C19.8445 12.142 19.8517 12.142 19.8629 12.142C20.7453 12.2298 21.6205 12.2445 22.4994 12.0906C22.5907 12.0761 22.6787 12.0689 22.7591 12.0725C23.2462 12.087 23.4841 12.431 23.2827 12.9765C23.1656 13.291 23.0776 13.6206 22.9458 13.9279C22.3489 15.3043 21.7741 16.6913 21.1335 18.0491C20.2068 20.0184 19.3024 21.9396 17.8853 23.6052C17.8745 23.6161 17.8633 23.6307 17.8452 23.649C17.8195 23.6782 17.794 23.7112 17.7645 23.7406C13.4326 28.7548 7.29553 31.9096 3.28598 37.2131C1.61994 39.42 0.0452632 41.8465 0.00149096 44.6941C-0.00973271 45.5066 0.0416708 46.33 0.180844 47.1281C0.462558 48.7859 1.02284 50.356 1.83948 51.8348C2.68529 53.3646 3.6961 54.7663 4.86426 56.0619C5.20096 56.4352 5.4975 56.8379 5.66248 57.3211C5.84543 57.8481 5.95161 58.3641 5.54149 58.8546C5.38391 59.0412 5.27078 59.2644 5.14597 59.4767C4.87144 59.9564 4.93003 60.542 5.34373 60.9077C5.74307 61.2556 6.16037 61.5961 6.61448 61.8669C10.8218 64.374 15.7943 66.0466 20.511 67.302C21.4407 67.5507 22.2831 66.8335 22.2573 65.8415C22.2207 64.4362 21.0674 63.4588 19.9139 62.844C18.5812 62.1374 17.1016 61.8046 15.6664 61.3726C15.2746 61.2556 14.8718 61.1861 14.4726 61.0945C14.4726 61.0873 14.4688 61.0834 14.4688 61.0762C14.4616 61.0507 14.458 61.0213 14.4507 60.9958C14.6008 60.9006 14.7545 60.809 14.9047 60.714C17.4789 59.0484 20.2032 57.5223 22.6418 55.6632C22.8031 55.5425 22.9094 55.5093 23.096 55.5533C24.5862 55.912 26.0768 56.2669 27.5707 56.6183L27.5965 56.6219L28.1017 56.706C28.4023 57.6908 28.7033 58.675 29.0046 59.6595C29.2322 60.4036 29.4698 61.1481 29.705 61.8871C30.151 63.289 30.4399 64.7586 31.3624 65.9497C31.6062 66.2643 31.9008 66.5591 32.2752 66.6944C32.787 66.8793 33.332 66.7361 33.8505 66.6647C34.3706 66.593 34.8961 66.5614 35.4177 66.4893C36.1356 66.3906 36.6811 66.0063 37.0329 65.3621C37.366 64.7583 37.3586 64.1141 37.2854 63.4552C37.2158 62.8039 36.9009 62.273 36.4393 61.8304C35.8499 61.2593 35.136 60.8857 34.3486 60.6628C34.191 60.615 34.136 60.5492 34.1325 60.3917C34.1288 59.9564 34.1068 59.5207 34.0959 59.0852C34.0959 56.9844 34.0229 54.8687 33.9129 52.7718C33.6822 48.343 34.1986 47.2489 34.2754 47.2084C34.301 49.7083 34.5023 51.9922 34.6231 53.0168C34.8539 54.9971 35.2202 56.9988 35.645 58.9167C35.8207 59.7146 36.0331 60.5124 36.6151 61.1348C36.9081 61.4532 37.2086 61.7569 37.7139 61.7205C38.362 61.6728 39.01 61.68 39.6581 61.651C39.8522 61.6435 40.0536 61.6143 40.2403 61.5592C41.6208 61.175 41.8626 59.3376 41.2619 58.3534C40.7749 57.5552 40.0096 57.1236 39.1236 56.7866C39.1492 56.4977 39.1786 56.2159 39.1968 55.9304C39.3835 52.5558 39.5078 49.2324 40.1707 45.9055C40.8153 42.6556 41.782 39.4384 42.8548 36.3384C43.6202 34.1238 44.5759 31.5948 44.1107 29.2268C43.8142 27.7227 42.9354 26.2477 42.1958 24.9225C41.4012 23.488 40.4637 21.98 40.5333 20.2744C40.5699 19.3009 40.947 18.3713 41.3939 17.5001C41.8002 16.7022 42.2615 15.7653 42.8731 15.0992C43.0416 14.9163 43.2394 14.7662 43.4555 14.6343C43.8876 14.3708 44.3855 14.1878 44.8396 14.0085C46.4946 13.3571 47.9558 12.3031 49.402 11.2708C50.6691 10.3707 51.9545 9.46645 53.0127 8.32825C54.1259 7.13148 54.946 5.65268 55.1183 4.00584C55.1914 3.27014 55.107 2.6004 54.6933 1.98541C54.21 1.26072 53.3202 1.45838 52.5696 1.51336C51.5626 1.5829 50.5592 1.68163 49.5596 1.81333C48.3952 1.95983 47.132 2.30761 45.9566 2.06574C43.0358 1.46982 40.5095 0.000222607 37.4757 0C37.4174 0 37.359 0.000675242 37.3 0.0017957ZM25.3077 51.8858L24.4729 51.864L25.3737 51.0295C25.5055 50.9051 25.6372 50.7843 25.7729 50.6636C25.9962 50.455 26.1682 50.4366 26.3001 50.6123C26.3001 50.6158 26.3037 50.6197 26.3037 50.6232C26.3403 50.6708 26.3697 50.733 26.3989 50.8063C26.4905 51.0552 26.5856 51.3002 26.6811 51.5676C26.6918 51.6006 26.7064 51.6334 26.7177 51.6663C26.8126 51.919 26.864 52.0617 26.864 52.0617C26.3001 52.0029 25.7984 51.9665 25.3077 51.8858Z"/></g><g style="mix-blend-mode:luminosity"><path fill="#fff" d="M4.71997 59.5716C4.7835 59.6351 4.81223 59.6696 4.81223 59.6696L4.76038 59.4392C4.73725 59.4852 4.72558 59.5312 4.71997 59.5716Z"/></g><g style="mix-blend-mode:luminosity"><path fill="#fff" d="M36.5639 28.3082C39.8303 34.0982 34.2754 47.2083 34.2754 47.2083C34.3011 49.7082 34.5024 51.992 34.6231 53.0167C34.8539 54.997 35.2202 56.9987 35.645 58.9167C35.8207 59.7145 36.0331 60.5123 36.6151 61.1348C36.9081 61.4531 37.2086 61.7569 37.7139 61.7203C38.362 61.6728 39.01 61.6799 39.6581 61.651C39.8522 61.6433 40.0536 61.6142 40.2403 61.5592C41.6208 61.1749 41.8626 59.3376 41.2619 58.3533C40.7749 57.5552 40.0096 57.1235 39.1236 56.7865C39.1492 56.4975 39.1786 56.2157 39.1968 55.9304C39.3835 52.5556 39.5078 49.2324 40.1707 45.9054C40.8153 42.6555 41.782 39.4383 42.8548 36.3382C43.6202 34.1238 44.5759 31.5947 44.1107 29.2268C43.8142 27.7226 42.9354 26.2476 42.1958 24.9225C41.4012 23.4879 40.4637 21.9799 40.5333 20.2744C40.5699 19.3008 40.947 18.3713 41.3939 17.5001C41.8002 16.7022 42.2615 15.7652 42.8731 15.0991C43.0416 14.9163 43.2394 14.7661 43.4555 14.6342C43.3758 14.6032 43.2824 14.588 43.1758 14.588C40.8862 14.5889 32.7849 21.6107 36.5639 28.3082Z"/></g><g style="mix-blend-mode:luminosity"><path fill="#fff" d="M14.9704 45.6236C15.5492 48.504 19.3683 52.1018 17.8525 55.7033C16.6257 58.6312 14.2088 61.0798 14.2088 61.0908L14.1868 61.1017L14.4687 61.0762C14.4615 61.0507 14.458 61.0212 14.4506 60.9956C14.6007 60.9005 14.7545 60.809 14.9046 60.7138C17.479 59.0483 20.2031 57.5222 22.6419 55.6631C22.803 55.5424 22.9093 55.5092 23.0959 55.5532C24.5861 55.912 26.0767 56.2669 27.5706 56.6182L27.5964 56.6219L28.1016 56.706L26.8639 52.0616C26.3 52.0028 25.7983 51.9665 25.3077 51.8857L24.4728 51.864L25.3737 51.0295C25.5054 50.905 25.6372 50.7843 25.7728 50.6636C25.9961 50.4549 26.1681 50.4366 26.3 50.6122C25.2235 47.9807 22.7664 42.6113 20.3313 41.7477C19.7205 41.5304 19.1295 41.4304 18.5757 41.4304C16.1914 41.4307 14.504 43.2862 14.9704 45.6236Z"/></g><g style="mix-blend-mode:luminosity"><path fill="#fff" d="M18.4088 10.6706C18.1765 10.8636 18.0463 11.0987 18.0976 11.3733C18.1635 11.7063 18.3538 11.9809 18.7384 12.0249C19.1047 12.0689 19.4708 12.1016 19.8369 12.1382C19.8443 12.142 19.8515 12.142 19.8628 12.142C20.7451 12.2298 21.6204 12.2445 22.4992 12.0906C22.5905 12.076 22.6786 12.0689 22.759 12.0725C23.246 12.087 23.484 12.431 23.2826 12.9765C23.1655 13.291 23.0774 13.6206 22.9457 13.9279C22.3488 15.3042 21.7739 16.6913 21.1332 18.0491C20.2066 20.0184 19.3022 21.9396 17.8852 23.6051C17.8744 23.6161 17.8632 23.6307 17.8523 23.6416L17.8449 23.649C17.8194 23.6782 17.7938 23.7113 17.7644 23.7406L17.7679 23.7514C20.9646 20.4318 29.4161 11.5928 27.5155 9.58738C27.0912 9.13887 26.2432 8.96387 25.2254 8.96387C22.7213 8.96387 19.1891 10.0226 18.4088 10.6706Z"/></g></g><path fill="#fff" d="M9.66055 80.4927V82.4984H6.35753V92.882H3.87138V82.4984H0.568359V80.4927H9.66055ZM20.62 87.7523C20.62 88.1073 20.5963 88.4268 20.549 88.7108H13.3569C13.416 89.4208 13.6647 89.977 14.1028 90.3792C14.5408 90.7815 15.0795 90.9827 15.7188 90.9827C16.6422 90.9827 17.2993 90.5863 17.6899 89.7935H20.3714C20.0873 90.7402 19.5426 91.5212 18.7377 92.1365C17.9326 92.74 16.9441 93.0417 15.772 93.0417C14.8249 93.0417 13.9725 92.8347 13.2149 92.4205C12.469 91.9945 11.883 91.3969 11.4568 90.6277C11.0424 89.8585 10.8352 88.9711 10.8352 87.9653C10.8352 86.9476 11.0424 86.0543 11.4568 85.2851C11.8711 84.5159 12.4513 83.9243 13.1971 83.5101C13.943 83.0959 14.8012 82.8889 15.772 82.8889C16.7073 82.8889 17.5419 83.0901 18.276 83.4924C19.0218 83.8946 19.5959 84.4686 19.9985 85.2141C20.4128 85.9478 20.62 86.7938 20.62 87.7523ZM18.0451 87.0423C18.0332 86.4033 17.8023 85.8945 17.3525 85.5158C16.9026 85.1253 16.3521 84.9301 15.701 84.9301C15.0853 84.9301 14.5645 85.1194 14.1383 85.4981C13.7239 85.8649 13.4693 86.3796 13.3747 87.0423H18.0451ZM26.1994 93.0417C25.3943 93.0417 24.6722 92.8997 24.0329 92.6157C23.3936 92.3199 22.8846 91.9235 22.5057 91.4265C22.1387 90.9295 21.9374 90.3792 21.9019 89.7758H24.4058C24.4531 90.1545 24.6367 90.468 24.9563 90.7165C25.2878 90.965 25.6962 91.0892 26.1816 91.0892C26.6551 91.0892 27.0222 90.9945 27.2826 90.8052C27.555 90.616 27.6911 90.3733 27.6911 90.0775C27.6911 89.758 27.5253 89.5213 27.1938 89.3675C26.8742 89.2018 26.3592 89.0243 25.6489 88.835C24.9148 88.6575 24.3111 88.4741 23.8376 88.2848C23.3758 88.0955 22.9734 87.8055 22.63 87.415C22.2985 87.0245 22.1328 86.498 22.1328 85.8353C22.1328 85.291 22.2866 84.794 22.5945 84.3443C22.9141 83.8946 23.364 83.5396 23.9441 83.2794C24.5361 83.0191 25.2287 82.8889 26.0218 82.8889C27.1938 82.8889 28.1291 83.1847 28.8276 83.7764C29.5261 84.3561 29.9109 85.1431 29.9819 86.1371H27.6023C27.5668 85.7466 27.401 85.4389 27.1051 85.2141C26.8209 84.9774 26.4362 84.8591 25.9508 84.8591C25.5009 84.8591 25.1517 84.9419 24.903 85.1076C24.6662 85.2733 24.5479 85.504 24.5479 85.7998C24.5479 86.1311 24.7137 86.3856 25.0451 86.5631C25.3766 86.7288 25.8915 86.9003 26.5901 87.0778C27.3004 87.2553 27.8864 87.4388 28.3481 87.628C28.8098 87.8173 29.2065 88.1132 29.5379 88.5155C29.8813 88.906 30.0589 89.4267 30.0707 90.0775C30.0707 90.6455 29.9109 91.1543 29.5912 91.604C29.2834 92.0537 28.8336 92.4087 28.2416 92.669C27.6615 92.9174 26.9808 93.0417 26.1994 93.0417ZM35.0061 85.0898V89.8468C35.0061 90.178 35.083 90.4207 35.237 90.5745C35.4026 90.7165 35.675 90.7875 36.0539 90.7875H37.2081V92.882H35.6454C33.5499 92.882 32.5022 91.8643 32.5022 89.829V85.0898H31.3302V83.0486H32.5022V80.6169H35.0061V83.0486H37.2081V85.0898H35.0061ZM38.3569 87.9298C38.3569 86.9358 38.5523 86.0543 38.943 85.2851C39.3454 84.5159 39.8841 83.9243 40.559 83.5101C41.2456 83.0959 42.0092 82.8889 42.8498 82.8889C43.5838 82.8889 44.2231 83.0368 44.7677 83.3326C45.3241 83.6284 45.7681 84.0011 46.0995 84.4508V83.0486H48.6034V92.882H46.0995V91.4442C45.7799 91.9057 45.3359 92.2903 44.7677 92.598C44.2112 92.8937 43.5661 93.0417 42.832 93.0417C42.0033 93.0417 41.2456 92.8287 40.559 92.4027C39.8841 91.9767 39.3454 91.3792 38.943 90.61C38.5523 89.829 38.3569 88.9356 38.3569 87.9298ZM46.0995 87.9653C46.0995 87.3618 45.9812 86.8471 45.7444 86.4211C45.5075 85.9833 45.1879 85.6519 44.7854 85.4271C44.3829 85.1904 43.9508 85.0721 43.4891 85.0721C43.0273 85.0721 42.6012 85.1845 42.2105 85.4093C41.8198 85.6341 41.5001 85.9655 41.2515 86.4033C41.0147 86.8293 40.8964 87.3381 40.8964 87.9298C40.8964 88.5215 41.0147 89.0421 41.2515 89.4918C41.5001 89.9295 41.8198 90.2668 42.2105 90.5035C42.6129 90.7402 43.0391 90.8585 43.4891 90.8585C43.9508 90.8585 44.3829 90.746 44.7854 90.5212C45.1879 90.2845 45.5075 89.9533 45.7444 89.5273C45.9812 89.0895 46.0995 88.5688 46.0995 87.9653ZM60.3191 83.0486V92.882H57.8152V91.6395C57.4955 92.0655 57.0753 92.4027 56.5543 92.6512C56.0453 92.8879 55.4889 93.0062 54.8851 93.0062C54.1156 93.0062 53.4349 92.8465 52.8429 92.527C52.251 92.1957 51.7834 91.7164 51.44 91.0892C51.1085 90.4502 50.9428 89.693 50.9428 88.8173V83.0486H53.4289V88.4623C53.4289 89.2433 53.6242 89.8468 54.0149 90.2727C54.4056 90.6869 54.9384 90.894 55.6132 90.894C56.2999 90.894 56.8385 90.6869 57.2292 90.2727C57.6198 89.8468 57.8152 89.2433 57.8152 88.4623V83.0486H60.3191ZM66.5369 93.0417C65.7318 93.0417 65.0097 92.8997 64.3704 92.6157C63.7311 92.3199 63.2219 91.9235 62.8432 91.4265C62.4761 90.9295 62.2749 90.3792 62.2394 89.7758H64.7433C64.7906 90.1545 64.9742 90.468 65.2938 90.7165C65.6253 90.965 66.0337 91.0892 66.5191 91.0892C66.9926 91.0892 67.3596 90.9945 67.6201 90.8052C67.8923 90.616 68.0286 90.3733 68.0286 90.0775C68.0286 89.758 67.8628 89.5213 67.5313 89.3675C67.2117 89.2018 66.6967 89.0243 65.9864 88.835C65.2523 88.6575 64.6486 88.4741 64.175 88.2848C63.7133 88.0955 63.3107 87.8055 62.9675 87.415C62.6359 87.0245 62.4703 86.498 62.4703 85.8353C62.4703 85.291 62.6241 84.794 62.932 84.3443C63.2516 83.8946 63.7014 83.5396 64.2816 83.2794C64.8735 83.0191 65.566 82.8889 66.3593 82.8889C67.5313 82.8889 68.4666 83.1847 69.1651 83.7764C69.8635 84.3561 70.2483 85.1431 70.3194 86.1371H67.9398C67.9043 85.7466 67.7385 85.4389 67.4426 85.2141C67.1584 84.9774 66.7736 84.8591 66.2883 84.8591C65.8384 84.8591 65.4892 84.9419 65.2405 85.1076C65.0037 85.2733 64.8854 85.504 64.8854 85.7998C64.8854 86.1311 65.051 86.3856 65.3826 86.5631C65.7141 86.7288 66.229 86.9003 66.9276 87.0778C67.6379 87.2553 68.2239 87.4388 68.6856 87.628C69.1473 87.8173 69.5439 88.1132 69.8754 88.5155C70.2187 88.906 70.3963 89.4267 70.4082 90.0775C70.4082 90.6455 70.2483 91.1543 69.9287 91.604C69.6208 92.0537 69.1709 92.4087 68.5791 92.669C67.9989 92.9174 67.3182 93.0417 66.5369 93.0417ZM76.2136 93.0417C75.4087 93.0417 74.6864 92.8997 74.0471 92.6157C73.4078 92.3199 72.8988 91.9235 72.5199 91.4265C72.153 90.9295 71.9517 90.3792 71.9162 89.7758H74.4201C74.4675 90.1545 74.6509 90.468 74.9706 90.7165C75.3021 90.965 75.7106 91.0892 76.1959 91.0892C76.6695 91.0892 77.0365 90.9945 77.2969 90.8052C77.5692 90.616 77.7053 90.3733 77.7053 90.0775C77.7053 89.758 77.5397 89.5213 77.2081 89.3675C76.8885 89.2018 76.3735 89.0243 75.6631 88.835C74.9292 88.6575 74.3254 88.4741 73.8518 88.2848C73.3901 88.0955 72.9876 87.8055 72.6442 87.415C72.3128 87.0245 72.147 86.498 72.147 85.8353C72.147 85.291 72.301 84.794 72.6087 84.3443C72.9284 83.8946 73.3783 83.5396 73.9584 83.2794C74.5503 83.0191 75.2429 82.8889 76.0361 82.8889C77.2081 82.8889 78.1434 83.1847 78.8419 83.7764C79.5404 84.3561 79.9251 85.1431 79.9961 86.1371H77.6165C77.581 85.7466 77.4154 85.4389 77.1193 85.2141C76.8352 84.9774 76.4505 84.8591 75.965 84.8591C75.5152 84.8591 75.1659 84.9419 74.9173 85.1076C74.6806 85.2733 74.5621 85.504 74.5621 85.7998C74.5621 86.1311 74.7279 86.3856 75.0594 86.5631C75.3909 86.7288 75.9059 86.9003 76.6043 87.0778C77.3147 87.2553 77.9007 87.4388 78.3624 87.628C78.8241 87.8173 79.2207 88.1132 79.5522 88.5155C79.8955 88.906 80.0731 89.4267 80.0849 90.0775C80.0849 90.6455 79.9251 91.1543 79.6055 91.604C79.2977 92.0537 78.8478 92.4087 78.2558 92.669C77.6758 92.9174 76.995 93.0417 76.2136 93.0417ZM91.2712 87.7523C91.2712 88.1073 91.2475 88.4268 91.2002 88.7108H84.0081C84.0674 89.4208 84.316 89.977 84.754 90.3792C85.192 90.7815 85.7307 90.9827 86.37 90.9827C87.2934 90.9827 87.9505 90.5863 88.3411 89.7935H91.0226C90.7385 90.7402 90.194 91.5212 89.3889 92.1365C88.5838 92.74 87.5953 93.0417 86.4233 93.0417C85.4761 93.0417 84.6237 92.8347 83.8661 92.4205C83.1202 91.9945 82.5342 91.3969 82.108 90.6277C81.6936 89.8585 81.4865 88.9711 81.4865 87.9653C81.4865 86.9476 81.6936 86.0543 82.108 85.2851C82.5224 84.5159 83.1025 83.9243 83.8483 83.5101C84.5942 83.0959 85.4525 82.8889 86.4233 82.8889C87.3585 82.8889 88.1931 83.0901 88.9272 83.4924C89.673 83.8946 90.2472 84.4686 90.6497 85.2141C91.0641 85.9478 91.2712 86.7938 91.2712 87.7523ZM88.6963 87.0423C88.6845 86.4033 88.4537 85.8945 88.0037 85.5158C87.5538 85.1253 87.0033 84.9301 86.3522 84.9301C85.7366 84.9301 85.2157 85.1194 84.7895 85.4981C84.3751 85.8649 84.1207 86.3796 84.0259 87.0423H88.6963ZM95.572 84.5751C95.8917 84.0544 96.3061 83.6462 96.8151 83.3504C97.336 83.0546 97.928 82.9066 98.5909 82.9066V85.5158H97.9339C97.1525 85.5158 96.5606 85.6993 96.158 86.0661C95.7674 86.4328 95.572 87.0718 95.572 87.983V92.882H93.0859V83.0486H95.572V84.5751ZM104.368 90.5922L106.854 83.0486H109.5L105.859 92.882H102.84L99.2178 83.0486H101.882L104.368 90.5922ZM120.042 87.7523C120.042 88.1073 120.018 88.4268 119.971 88.7108H112.778C112.838 89.4208 113.086 89.977 113.524 90.3792C113.962 90.7815 114.501 90.9827 115.14 90.9827C116.064 90.9827 116.721 90.5863 117.111 89.7935H119.793C119.509 90.7402 118.964 91.5212 118.159 92.1365C117.354 92.74 116.366 93.0417 115.194 93.0417C114.246 93.0417 113.394 92.8347 112.636 92.4205C111.891 91.9945 111.305 91.3969 110.878 90.6277C110.464 89.8585 110.257 88.9711 110.257 87.9653C110.257 86.9476 110.464 86.0543 110.878 85.2851C111.293 84.5159 111.873 83.9243 112.619 83.5101C113.365 83.0959 114.223 82.8889 115.194 82.8889C116.129 82.8889 116.963 83.0901 117.698 83.4924C118.443 83.8946 119.018 84.4686 119.42 85.2141C119.834 85.9478 120.042 86.7938 120.042 87.7523ZM117.467 87.0423C117.455 86.4033 117.224 85.8945 116.774 85.5158C116.324 85.1253 115.774 84.9301 115.123 84.9301C114.507 84.9301 113.986 85.1194 113.56 85.4981C113.145 85.8649 112.891 86.3796 112.796 87.0423H117.467ZM124.343 84.5751C124.663 84.0544 125.076 83.6462 125.586 83.3504C126.106 83.0546 126.699 82.9066 127.362 82.9066V85.5158H126.705C125.923 85.5158 125.33 85.6993 124.929 86.0661C124.537 86.4328 124.343 87.0718 124.343 87.983V92.882H121.857V83.0486H124.343V84.5751ZM130.297 81.8771C129.859 81.8771 129.491 81.7411 129.196 81.4689C128.911 81.1849 128.769 80.8359 128.769 80.4217C128.769 80.0075 128.911 79.6644 129.196 79.3922C129.491 79.1082 129.859 78.9662 130.297 78.9662C130.734 78.9662 131.096 79.1082 131.38 79.3922C131.676 79.6644 131.824 80.0075 131.824 80.4217C131.824 80.8359 131.676 81.1849 131.38 81.4689C131.096 81.7411 130.734 81.8771 130.297 81.8771ZM131.521 83.0486V92.882H129.035V83.0486H131.521Z"/></g></svg>