<svg width="2737" height="1529" viewBox="0 0 2737 1529" fill="none" xmlns="http://www.w3.org/2000/svg">
<path d="M23.7363 817.964C23.7363 769.36 32.7789 726.691 50.864 689.955C69.5143 653.22 94.6639 624.962 126.313 605.182C157.962 585.401 193.284 575.511 232.28 575.511C265.625 575.511 294.73 582.293 319.597 595.856C345.03 609.42 364.528 627.223 378.091 649.264V582.293H523.055V1055.33H378.091V988.36C363.962 1010.4 344.182 1028.2 318.75 1041.77C293.883 1055.33 264.777 1062.11 231.432 1062.11C193.002 1062.11 157.962 1052.22 126.313 1032.44C94.6639 1012.1 69.5143 983.556 50.864 946.82C32.7789 909.52 23.7363 866.568 23.7363 817.964ZM378.091 818.812C378.091 782.642 367.919 754.101 347.573 733.19C327.792 712.279 303.49 701.824 274.667 701.824C245.844 701.824 221.26 712.279 200.914 733.19C181.133 753.536 171.243 781.794 171.243 817.964C171.243 854.134 181.133 882.957 200.914 904.434C221.26 925.344 245.844 935.8 274.667 935.8C303.49 935.8 327.792 925.344 347.573 904.434C367.919 883.523 378.091 854.982 378.091 818.812Z" fill="white"/>
<path d="M599.106 817.964C599.106 769.36 608.149 726.691 626.234 689.955C644.884 653.22 670.034 624.962 701.683 605.182C733.332 585.401 768.654 575.511 807.65 575.511C840.995 575.511 870.1 582.293 894.967 595.856C920.399 609.42 939.897 627.223 953.461 649.264V582.293H1098.42V1055.33H953.461V988.36C939.332 1010.4 919.552 1028.2 894.12 1041.77C869.253 1055.33 840.147 1062.11 806.802 1062.11C768.372 1062.11 733.332 1052.22 701.683 1032.44C670.034 1012.1 644.884 983.556 626.234 946.82C608.149 909.52 599.106 866.568 599.106 817.964ZM953.461 818.812C953.461 782.642 943.288 754.101 922.943 733.19C903.162 712.279 878.86 701.824 850.037 701.824C821.214 701.824 796.63 712.279 776.284 733.19C756.503 753.536 746.613 781.794 746.613 817.964C746.613 854.134 756.503 882.957 776.284 904.434C796.63 925.344 821.214 935.8 850.037 935.8C878.86 935.8 903.162 925.344 922.943 904.434C943.288 883.523 953.461 854.982 953.461 818.812Z" fill="white"/>
<path d="M1466.95 932.409V1055.33H1393.19C1340.63 1055.33 1299.66 1042.61 1270.27 1017.18C1240.88 991.185 1226.19 949.081 1226.19 890.87V702.672H1168.54V582.293H1226.19V467H1371.15V582.293H1466.1V702.672H1371.15V892.565C1371.15 906.694 1374.54 916.867 1381.32 923.084C1388.11 929.301 1399.41 932.409 1415.23 932.409H1466.95Z" fill="white"/>
<path d="M1763.02 1062.11C1716.68 1062.11 1674.85 1052.22 1637.55 1032.44C1600.82 1012.66 1571.71 984.404 1550.24 947.668C1529.33 910.933 1518.87 867.981 1518.87 818.812C1518.87 770.208 1529.61 727.539 1551.08 690.803C1572.56 653.503 1601.95 624.962 1639.25 605.182C1676.55 585.401 1718.37 575.511 1764.71 575.511C1811.06 575.511 1852.88 585.401 1890.18 605.182C1927.48 624.962 1956.87 653.503 1978.35 690.803C1999.82 727.539 2010.56 770.208 2010.56 818.812C2010.56 867.416 1999.54 910.368 1977.5 947.668C1956.02 984.404 1926.35 1012.66 1888.48 1032.44C1851.18 1052.22 1809.36 1062.11 1763.02 1062.11ZM1763.02 936.648C1790.71 936.648 1814.17 926.475 1833.38 906.129C1853.16 885.783 1863.05 856.677 1863.05 818.812C1863.05 780.946 1853.44 751.84 1834.23 731.495C1815.58 711.149 1792.41 700.976 1764.71 700.976C1736.46 700.976 1713 711.149 1694.35 731.495C1675.7 751.275 1666.38 780.381 1666.38 818.812C1666.38 856.677 1675.42 885.783 1693.5 906.129C1712.15 926.475 1735.33 936.648 1763.02 936.648Z" fill="white"/>
<path d="M2279.9 1062.11C2238.65 1062.11 2201.91 1055.05 2169.7 1040.92C2137.48 1026.79 2112.05 1007.58 2093.4 983.273C2074.75 958.406 2064.29 930.713 2062.03 900.195H2205.3C2207 916.584 2214.63 929.866 2228.19 940.039C2241.75 950.211 2258.43 955.298 2278.21 955.298C2296.29 955.298 2310.14 951.907 2319.75 945.125C2329.92 937.778 2335 928.453 2335 917.15C2335 903.586 2327.94 893.695 2313.81 887.479C2299.68 880.697 2276.79 873.35 2245.14 865.437C2211.23 857.525 2182.98 849.33 2160.37 840.853C2137.76 831.81 2118.27 817.964 2101.88 799.314C2085.49 780.098 2077.29 754.384 2077.29 722.17C2077.29 695.042 2084.64 670.457 2099.33 648.416C2114.59 625.81 2136.63 608.007 2165.46 595.009C2194.85 582.01 2229.6 575.511 2269.73 575.511C2329.07 575.511 2375.7 590.205 2409.61 619.593C2444.08 648.981 2463.86 687.977 2468.95 736.581H2335C2332.74 720.191 2325.4 707.193 2312.96 697.585C2301.1 687.977 2285.27 683.174 2265.49 683.174C2248.54 683.174 2235.54 686.564 2226.49 693.346C2217.45 699.563 2212.93 708.323 2212.93 719.626C2212.93 733.19 2219.99 743.363 2234.12 750.145C2248.82 756.927 2271.42 763.709 2301.94 770.491C2336.98 779.533 2365.52 788.576 2387.56 797.618C2409.61 806.096 2428.82 820.225 2445.21 840.005C2462.17 859.221 2470.93 885.218 2471.49 917.997C2471.49 945.69 2463.58 970.557 2447.75 992.598C2432.49 1014.07 2410.17 1031.03 2380.78 1043.46C2351.96 1055.9 2318.33 1062.11 2279.9 1062.11Z" fill="white"/>
<path d="M2628 1062.11C2602.57 1062.11 2581.66 1054.77 2565.27 1040.07C2549.44 1024.81 2541.53 1006.16 2541.53 984.121C2541.53 961.515 2549.44 942.582 2565.27 927.322C2581.66 912.063 2602.57 904.434 2628 904.434C2652.87 904.434 2673.21 912.063 2689.04 927.322C2705.43 942.582 2713.62 961.515 2713.62 984.121C2713.62 1006.16 2705.43 1024.81 2689.04 1040.07C2673.21 1054.77 2652.87 1062.11 2628 1062.11Z" fill="white"/>
</svg>
