<svg xmlns="http://www.w3.org/2000/svg" width="1322" height="602" fill="none" viewBox="0 0 1322 602"><mask id="mask0_1920_23" style="mask-type:luminance" width="1322" height="602" x="0" y="0" maskUnits="userSpaceOnUse"><path fill="#fff" stroke="#fff" d="M1321.5 601.5V0.5H0.5V601.5H1321.5Z"/></mask><g mask="url(#mask0_1920_23)"><path fill="#fff" d="M1174.11 380.627H1225.34L1234.74 327.904L1308.14 221.374H1252.17L1216.88 272.6L1199.5 221.374H1147.38L1183.51 327.904L1174.11 380.627ZM1034.02 380.627H1149.39L1157.41 335.635H1093.27L1113.31 221.374H1062.08L1034.02 380.627ZM944.046 284.407L948.502 259.014H973.894C981.467 259.014 987.034 262.132 987.034 269.707C987.034 277.947 980.354 284.407 969.439 284.407H944.046ZM934.249 340.535L939.145 311.8H967.655C975.451 311.8 981.911 314.92 981.911 323.828C981.911 333.407 974.783 340.535 961.641 340.535H934.249ZM875.89 380.627H965.206C1004.63 380.627 1030.47 358.798 1030.47 328.286C1030.47 310.243 1021.11 300.443 1004.85 295.543L1005.07 295.098C1025.35 288.862 1037.15 272.379 1037.15 254.338C1037.15 233.844 1020.89 221.374 988.147 221.374H903.954L875.89 380.627ZM657.626 380.627H707.517L716.649 327.394C718.43 317.147 719.545 310.911 721.995 291.756H722.441L735.135 380.627H781.689L826.011 291.088H826.459C821.781 312.692 819.329 324.052 818.885 327.394L809.529 380.627H859.198L885.035 221.374H817.323L767.433 327.172L754.737 221.374H688.139L657.626 380.627ZM517.534 380.627H642.489L650.062 338.308H576.111L579.677 318.707H640.261L646.943 280.62H586.361L589.477 263.692H663.202L670.553 221.374H545.598L517.534 380.627ZM439.143 384.859C487.698 384.859 514.65 361.026 514.65 324.499C514.65 305.344 506.407 288.415 480.125 282.624L453.177 276.61C450.279 275.942 444.265 274.382 444.265 268.147C444.265 261.464 450.725 256.787 463.198 256.787C481.686 256.787 502.845 265.252 511.531 273.936L519.327 230.058C512.867 225.382 490.817 217.14 463.421 217.14C418.206 217.14 389.249 239.412 389.249 273.492C389.249 301.556 409.074 312.692 427.337 316.926L448.053 321.602C453.177 322.715 458.745 325.167 458.745 331.848C458.745 339.198 452.062 344.098 438.697 344.098C412.415 344.098 389.027 328.954 382.123 320.488L373.658 367.932C381.677 375.28 408.85 384.859 439.143 384.859ZM292.818 384.859C341.373 384.859 368.325 361.026 368.325 324.499C368.325 305.344 360.082 288.415 333.799 282.624L306.851 276.61C303.954 275.942 297.941 274.382 297.941 268.147C297.941 261.464 304.399 256.787 316.873 256.787C335.361 256.787 356.519 265.252 365.206 273.936L373.001 230.058C366.542 225.382 344.491 217.14 317.095 217.14C271.881 217.14 242.923 239.412 242.923 273.492C242.923 301.556 262.749 312.692 281.011 316.926L301.726 321.602C306.851 322.715 312.418 325.167 312.418 331.848C312.418 339.198 305.737 344.098 292.371 344.098C266.089 344.098 242.701 328.954 235.798 320.488L227.333 367.932C235.353 375.28 262.525 384.859 292.818 384.859ZM79.3512 380.627L79.3526 380.626L100.594 349.795L66.8099 327.543L125.838 313.155L170.787 247.918L160.791 304.636L222.695 289.548L234.715 221.374H123.587L13.8633 380.627H79.3512ZM219.409 308.183L206.637 380.627H147.401L154.225 341.899L219.409 308.183Z"/></g></svg>