<svg xmlns="http://www.w3.org/2000/svg" class="ks-logo" enable-background="new 0 0 156 116" viewBox="0 0 156 116"><g fill="#fff" style="--darkreader-inline-fill:#181a1b"><path d="m6.1 34.9-1.3 1.5v5h-3.4v-16.3h3.5v7.3l5.8-7.3h4.3l-6.5 7.6 6.9 8.6h-4.4z"/><path d="m27.3 24.9c4.9 0 8.5 3.5 8.5 8.4s-3.6 8.4-8.5 8.4-8.5-3.5-8.5-8.4 3.6-8.4 8.5-8.4zm0 3.1c-3 0-4.9 2.3-4.9 5.3s1.9 5.3 4.9 5.3 5-2.3 5-5.3c0-3.1-2-5.3-5-5.3z"/><path d="m2.2 61.2c1.1 1.2 2.9 2.2 5.2 2.2 1.9 0 2.8-.9 2.8-1.8 0-1.2-1.4-1.6-3.3-2.1-2.7-.6-6.1-1.3-6.1-5 0-2.7 2.3-4.9 6.2-4.9 2.6 0 4.7.8 6.3 2.3l-1.9 2.5c-1.3-1.2-3.1-1.8-4.7-1.8s-2.4.7-2.4 1.7c0 1.1 1.4 1.4 3.2 1.9 2.7.6 6.1 1.4 6.1 5 0 3-2.1 5.2-6.5 5.2-3.1 0-5.4-1.1-6.9-2.6z"/><path d="m19.7 49.8h3.5v9.7c0 2.3 1.2 3.8 3.8 3.8 2.5 0 3.7-1.6 3.7-3.8v-9.7h3.5v9.8c0 4.1-2.3 6.8-7.3 6.8s-7.3-2.8-7.3-6.8v-9.8z"/><path d="m7.4 85h-2.6v5.8h-3.4v-16.3h7.6c3.4 0 5.5 2.2 5.5 5.3 0 2.9-1.8 4.4-3.6 4.8l3.7 6.2h-4zm1.1-7.5h-3.7v4.5h3.6c1.4 0 2.4-.9 2.4-2.2.1-1.4-.9-2.3-2.3-2.3z"/><path d="m25.2 84.2-6.2-9.7h4l4.1 6.5 4-6.5h4l-6.2 9.6v6.7h-3.5v-6.6z"/><path d="m48.8 24.9c4.9 0 8.5 3.5 8.5 8.4s-3.6 8.4-8.5 8.4-8.5-3.5-8.5-8.4 3.6-8.4 8.5-8.4zm0 3.1c-3 0-4.9 2.3-4.9 5.3s1.9 5.3 4.9 5.3 5-2.3 5-5.3c0-3.1-1.9-5.3-5-5.3z"/><path d="m48.8.2c4.9 0 8.5 3.5 8.5 8.4s-3.5 8.4-8.5 8.4c-4.9 0-8.5-3.5-8.5-8.4s3.6-8.4 8.5-8.4zm0 3.1c-3 0-4.9 2.3-4.9 5.3s1.9 5.3 4.9 5.3 5-2.3 5-5.3c0-3.1-1.9-5.3-5-5.3z"/><path d="m48.8 49.6c4.9 0 8.5 3.5 8.5 8.4s-3.6 8.4-8.5 8.4-8.5-3.5-8.5-8.4 3.6-8.4 8.5-8.4zm0 3.1c-3 0-4.9 2.3-4.9 5.3s1.9 5.3 4.9 5.3 5-2.3 5-5.3c0-3.1-1.9-5.3-5-5.3z"/><path d="m48.8 99c4.9 0 8.5 3.5 8.5 8.4s-3.6 8.4-8.5 8.4-8.5-3.5-8.5-8.4c.1-4.9 3.6-8.4 8.5-8.4zm0 3.1c-3 0-4.9 2.3-4.9 5.3s1.9 5.3 4.9 5.3 5-2.3 5-5.3c0-3.1-1.9-5.3-5-5.3z"/><path d="m47.9 79-2.7 2.8-2-2.1 5.1-5.2h3v16.3h-3.5v-11.8z"/><path d="m84.8 25.1h3.5v16.3h-3.5z"/><path d="m63.3 25.1h6.4c5.1 0 8.6 3.2 8.6 8.2s-3.5 8.1-8.6 8.1h-6.4zm6.4 13.3c3.2 0 5.1-2.3 5.1-5.1 0-2.9-1.8-5.1-5.1-5.1h-3v10.2z"/><path d="m106.1 38.6h-7.3l-1 2.8h-3.8l6.3-16.3h4.3l6.3 16.3h-3.8zm-6.3-3h5.4l-2.7-7.5z"/><path d="m77.5 54.4-4.6 11.7h-1.5l-4.6-11.7v11.7h-3.5v-16.3h4.9l4 10.2 4-10.2h4.8v16.3h-3.5z"/><path d="m88.8 49.8h11.5v3h-8.1v3.5h7.9v3h-7.9v3.8h8.1v3h-11.5z"/><path d="m128.9 52.9h-4.8v-3.1h13v3.1h-4.7v13.2h-3.5z"/><path d="m150.9 63.3h-7.3l-1 2.8h-3.8l6.3-16.3h4.3l6.3 16.3h-3.7zm-6.3-3h5.4l-2.7-7.5z"/><path d="m108.5 61.2c1.1 1.2 2.9 2.2 5.2 2.2 1.9 0 2.8-.9 2.8-1.8 0-1.2-1.4-1.6-3.3-2.1-2.7-.6-6.1-1.3-6.1-5 0-2.7 2.3-4.9 6.2-4.9 2.6 0 4.7.8 6.3 2.3l-1.9 2.5c-1.3-1.2-3.1-1.8-4.7-1.8s-2.4.7-2.4 1.7c0 1.1 1.4 1.4 3.2 1.9 2.7.6 6.1 1.4 6.1 5 0 3-2.1 5.2-6.5 5.2-3.1 0-5.4-1.1-6.9-2.6z"/></g></svg>