<svg xmlns="http://www.w3.org/2000/svg" width="588" height="235" fill="none" viewBox="0 0 588 235"><path fill="#fff" d="M40.3817 148.883V120.705C40.3817 118.496 40.0502 117.087 39.3872 116.478C38.7241 115.872 37.3411 115.567 35.2433 115.567H23.9721C15.2415 115.567 10.8776 111.202 10.8776 102.472V73.7965C10.8776 65.0685 15.2415 60.7021 23.9721 60.7021H38.5584C47.2863 60.7021 51.6529 65.0685 51.6529 73.7965V89.709H40.2159V75.62C40.2159 73.4107 39.9103 72.0018 39.3043 71.3932C38.6958 70.7872 37.2866 70.4814 35.0776 70.4814H27.4529C25.2411 70.4814 23.8322 70.7872 23.2262 71.3932C22.6177 72.0018 22.3146 73.4107 22.3146 75.62V100.649C22.3146 102.749 22.6177 104.13 23.2262 104.793C23.8322 105.456 25.2411 105.787 27.4529 105.787H38.7241C47.4521 105.787 51.8187 110.154 51.8187 118.882V150.706C51.8187 159.437 47.4521 163.801 38.7241 163.801H24.3036C15.5731 163.801 11.2091 159.437 11.2091 150.706V134.794H22.6461V148.883C22.6461 151.095 22.9492 152.503 23.5577 153.11C24.1637 153.718 25.5726 154.021 27.7844 154.021H35.2433C37.3411 154.021 38.7241 153.718 39.3872 153.11C40.0502 152.503 40.3817 151.095 40.3817 148.883Z"/><path fill="#fff" d="M101.378 163.801L97.0687 137.612H76.1838L72.3715 163.801H60.9345L77.0126 60.7021H95.0795L112.815 163.801H101.378ZM77.5098 127.832H95.5769L85.963 68.6582L77.5098 127.832Z"/><path fill="#fff" d="M155.743 60.7021H167.014V150.706C167.014 159.437 162.648 163.801 153.92 163.801H137.013C128.282 163.801 123.919 159.437 123.919 150.706V60.7021H135.19V148.883C135.19 151.095 135.521 152.503 136.184 153.11C136.847 153.718 138.228 154.021 140.328 154.021H150.605C152.703 154.021 154.086 153.718 154.749 153.11C155.412 152.503 155.743 151.095 155.743 148.883V60.7021Z"/><path fill="#fff" d="M226.189 91.2006H214.752V75.62C214.752 73.4107 214.421 72.0018 213.758 71.3932C213.095 70.7872 211.711 70.4814 209.614 70.4814H200.497C198.285 70.4814 196.876 70.7872 196.27 71.3932C195.661 72.0018 195.358 73.4107 195.358 75.62V149.049C195.358 151.149 195.661 152.529 196.27 153.192C196.876 153.856 198.285 154.187 200.497 154.187H209.614C211.711 154.187 213.095 153.856 213.758 153.192C214.421 152.529 214.752 151.149 214.752 149.049V133.468H226.189V150.872C226.189 159.602 221.822 163.966 213.095 163.966H197.016C188.285 163.966 183.921 159.602 183.921 150.872V73.7965C183.921 65.0685 188.285 60.7021 197.016 60.7021H213.095C221.822 60.7021 226.189 65.0685 226.189 73.7965V91.2006Z"/><path fill="#fff" d="M253.369 154.021H281.712V163.801H241.932V60.7021H280.552V70.4814H253.369V105.29H275.58V115.069H253.369V154.021Z"/><path fill="#fff" d="M321.16 148.883V120.705C321.16 118.496 320.828 117.087 320.165 116.478C319.502 115.872 318.12 115.567 316.021 115.567H304.75C296.021 115.567 291.656 111.202 291.656 102.472V73.7965C291.656 65.0685 296.021 60.7021 304.75 60.7021H319.336C328.065 60.7021 332.431 65.0685 332.431 73.7965V89.709H320.994V75.62C320.994 73.4107 320.689 72.0018 320.082 71.3932C319.475 70.7872 318.066 70.4814 315.856 70.4814H308.231C306.02 70.4814 304.611 70.7872 304.004 71.3932C303.397 72.0018 303.093 73.4107 303.093 75.62V100.649C303.093 102.749 303.397 104.13 304.004 104.793C304.611 105.456 306.02 105.787 308.231 105.787H319.502C328.231 105.787 332.597 110.154 332.597 118.882V150.706C332.597 159.437 328.231 163.801 319.502 163.801H305.082C296.353 163.801 291.987 159.437 291.987 150.706V134.794H303.424V148.883C303.424 151.095 303.729 152.503 304.336 153.11C304.943 153.718 306.352 154.021 308.562 154.021H316.021C318.12 154.021 319.502 153.718 320.165 153.11C320.828 152.503 321.16 151.095 321.16 148.883Z"/><path fill="#fff" d="M360.609 60.7021H377.516C386.245 60.7021 390.61 65.0685 390.61 73.7965V150.706C390.61 159.437 386.245 163.801 377.516 163.801H360.609C351.878 163.801 347.514 159.437 347.514 150.706V73.7965C347.514 65.0685 351.878 60.7021 360.609 60.7021ZM379.339 148.883V75.62C379.339 73.4107 379.008 72.0018 378.345 71.3932C377.682 70.7872 376.3 70.4814 374.201 70.4814H363.924C361.823 70.4814 360.443 70.7872 359.78 71.3932C359.117 72.0018 358.786 73.4107 358.786 75.62V148.883C358.786 151.095 359.117 152.503 359.78 153.11C360.443 153.718 361.823 154.021 363.924 154.021H374.201C376.3 154.021 377.682 153.718 378.345 153.11C379.008 152.503 379.339 151.095 379.339 148.883Z"/><path fill="#fff" d="M448.29 70.4814H419.449V106.947H441.66V116.727H419.449V163.801H408.012V60.7021H448.29V70.4814Z"/><path fill="#fff" d="M494.368 60.7021V70.4814H477.793V163.801H466.521V70.4814H449.946V60.7021H494.368Z"/><path stroke="#fff" stroke-miterlimit="10" stroke-width="6.216" d="M563.589 160.569H519.04C514.441 160.569 510.713 156.968 510.713 152.522V81.8993C510.713 77.4538 514.441 73.853 519.04 73.853H563.589C568.188 73.853 571.914 77.4538 571.914 81.8993V152.522C571.914 156.964 568.188 160.569 563.589 160.569Z"/><path stroke="#fff" stroke-miterlimit="10" stroke-width="7.252" d="M510.713 64.2244H571.914"/><path stroke="#fff" stroke-miterlimit="10" stroke-width="6.216" d="M510.713 97.02C510.713 97.02 526.288 85.6723 541.313 97.02C556.339 108.368 571.914 97.02 571.914 97.02"/></svg>