<svg width="2838" height="584" viewBox="0 0 2838 584" fill="none" xmlns="http://www.w3.org/2000/svg">
<path d="M194.9 467.6V331.6C194.9 320.937 193.3 314.137 190.1 311.199C186.9 308.274 180.225 306.8 170.1 306.8H115.7C73.5625 306.8 52.5 285.737 52.5 243.6V105.199C52.5 63.0742 73.5625 42 115.7 42H186.1C228.225 42 249.3 63.0742 249.3 105.199V182H194.1V114C194.1 103.337 192.625 96.5371 189.7 93.5996C186.763 90.6748 179.962 89.1992 169.3 89.1992H132.5C121.825 89.1992 115.025 90.6748 112.1 93.5996C109.163 96.5371 107.7 103.337 107.7 114V234.8C107.7 244.938 109.163 251.6 112.1 254.8C115.025 258 121.825 259.6 132.5 259.6H186.9C229.025 259.6 250.1 280.675 250.1 322.8V476.399C250.1 518.537 229.025 539.6 186.9 539.6H117.3C75.1626 539.6 54.1001 518.537 54.1001 476.399V399.6H109.3V467.6C109.3 478.274 110.763 485.074 113.7 488C116.625 490.938 123.425 492.399 134.1 492.399H170.1C180.225 492.399 186.9 490.938 190.1 488C193.3 485.074 194.9 478.274 194.9 467.6Z" fill="white"/>
<path d="M489.297 539.6L468.497 413.199H367.697L349.297 539.6H294.097L371.697 42H458.896L544.497 539.6H489.297V539.6ZM374.097 366H461.297L414.896 80.3994L374.097 366V366Z" fill="white"/>
<path d="M751.687 42H806.086V476.399C806.086 518.537 785.012 539.6 742.887 539.6H661.286C619.148 539.6 598.086 518.537 598.086 476.399V42H652.486V467.6C652.486 478.274 654.086 485.074 657.286 488C660.486 490.938 667.148 492.399 677.286 492.399H726.887C737.012 492.399 743.687 490.938 746.887 488C750.086 485.074 751.687 478.274 751.687 467.6V42V42Z" fill="white"/>
<path d="M1091.69 189.199H1036.49V114C1036.49 103.337 1034.89 96.5371 1031.69 93.5996C1028.49 90.6748 1021.81 89.1992 1011.69 89.1992H967.686C957.011 89.1992 950.211 90.6748 947.285 93.5996C944.348 96.5371 942.886 103.337 942.886 114V468.399C942.886 478.537 944.348 485.199 947.285 488.399C950.211 491.6 957.011 493.199 967.686 493.199H1011.69C1021.81 493.199 1028.49 491.6 1031.69 488.399C1034.89 485.199 1036.49 478.537 1036.49 468.399V393.199H1091.69V477.199C1091.69 519.337 1070.61 540.399 1028.49 540.399H950.886C908.748 540.399 887.686 519.337 887.686 477.199V105.199C887.686 63.0742 908.748 42 950.886 42H1028.49C1070.61 42 1091.69 63.0742 1091.69 105.199V189.199Z" fill="white"/>
<path d="M1222.87 492.399H1359.67V539.6H1167.67V42H1354.07V89.1992H1222.87V257.199H1330.07V304.399H1222.87V492.399V492.399Z" fill="white"/>
<path d="M1550.06 467.6V331.6C1550.06 320.937 1548.46 314.137 1545.26 311.199C1542.06 308.274 1535.39 306.8 1525.26 306.8H1470.86C1428.73 306.8 1407.66 285.737 1407.66 243.6V105.199C1407.66 63.0742 1428.73 42 1470.86 42H1541.26C1583.39 42 1604.46 63.0742 1604.46 105.199V182H1549.26V114C1549.26 103.337 1547.79 96.5371 1544.86 93.5996C1541.93 90.6748 1535.13 89.1992 1524.46 89.1992H1487.66C1476.99 89.1992 1470.19 90.6748 1467.26 93.5996C1464.33 96.5371 1462.86 103.337 1462.86 114V234.8C1462.86 244.938 1464.33 251.6 1467.26 254.8C1470.19 258 1476.99 259.6 1487.66 259.6H1542.06C1584.19 259.6 1605.26 280.675 1605.26 322.8V476.399C1605.26 518.537 1584.19 539.6 1542.06 539.6H1472.46C1430.33 539.6 1409.26 518.537 1409.26 476.399V399.6H1464.46V467.6C1464.46 478.274 1465.93 485.074 1468.86 488C1471.79 490.938 1478.59 492.399 1489.26 492.399H1525.26C1535.39 492.399 1542.06 490.938 1545.26 488C1548.46 485.074 1550.06 478.274 1550.06 467.6Z" fill="white"/>
<path d="M1740.46 42H1822.06C1864.19 42 1885.26 63.0742 1885.26 105.199V476.399C1885.26 518.537 1864.19 539.6 1822.06 539.6H1740.46C1698.32 539.6 1677.26 518.537 1677.26 476.399V105.199C1677.26 63.0742 1698.32 42 1740.46 42ZM1830.86 467.6V114C1830.86 103.337 1829.26 96.5371 1826.06 93.5996C1822.86 90.6748 1816.19 89.1992 1806.06 89.1992H1756.46C1746.32 89.1992 1739.66 90.6748 1736.46 93.5996C1733.26 96.5371 1731.66 103.337 1731.66 114V467.6C1731.66 478.274 1733.26 485.074 1736.46 488C1739.66 490.938 1746.32 492.399 1756.46 492.399H1806.06C1816.19 492.399 1822.86 490.938 1826.06 488C1829.26 485.074 1830.86 478.274 1830.86 467.6Z" fill="white"/>
<path d="M2163.65 89.1992H2024.45V265.199H2131.65V312.399H2024.45V539.6H1969.25V42H2163.65V89.1992V89.1992Z" fill="white"/>
<path d="M2386.04 42V89.1992H2306.04V539.6H2251.64V89.1992H2171.64V42H2386.04Z" fill="white"/>
<path d="M2720.13 524H2505.12C2482.92 524 2464.93 506.621 2464.93 485.165V144.307C2464.93 122.851 2482.92 105.472 2505.12 105.472H2720.13C2742.33 105.472 2760.31 122.851 2760.31 144.307V485.165C2760.31 506.602 2742.33 524 2720.13 524V524Z" stroke="white" stroke-width="30" stroke-miterlimit="10"/>
<path d="M2464.93 59H2760.31" stroke="white" stroke-width="35" stroke-miterlimit="10"/>
<path d="M2464.93 217.286C2464.93 217.286 2540.1 162.517 2612.62 217.286C2685.14 272.056 2760.31 217.286 2760.31 217.286" stroke="white" stroke-width="30" stroke-miterlimit="10"/>
</svg>
