<?xml version="1.0" encoding="UTF-8" standalone="no"?>
<svg
   xmlns="http://www.w3.org/2000/svg"
   viewBox="0 0 12 12">
   <path
      d="M 5.746044,0 C 2.572808,0 0,2.5728 0,5.74675 c 0,2.53894 1.646413,4.69264 3.929944,5.45288 0.287514,0.0526 0.392289,-0.12488 0.392289,-0.27728 0,-0.13617 -0.0049,-0.49777 -0.0078,-0.9772 C 2.715997,10.29229 2.378741,9.17469 2.378741,9.17469 2.117333,8.51111 1.740566,8.33437 1.740566,8.33437 1.218808,7.97771 1.780076,7.98477 1.780076,7.98477 2.356868,8.02567 2.660257,8.57708 2.660257,8.57708 3.172843,9.45514 4.005398,9.2015 4.332776,9.05474 4.384986,8.68327 4.533154,8.42997 4.697548,8.28639 3.421551,8.1414 2.079937,7.64822 2.079937,5.44618 c 0,-0.62724 0.224014,-1.14018 0.591609,-1.54199 -0.05927,-0.14535 -0.25647,-0.72955 0.05609,-1.52083 0,0 0.4826,-0.15451 1.580445,0.58914 0.458258,-0.12735 0.95003,-0.1912 1.438627,-0.19332 0.487892,0.002 0.979664,0.066 1.438628,0.19332 1.097139,-0.74365 1.578681,-0.58914 1.578681,-0.58914 0.313619,0.79128 0.116416,1.37548 0.05715,1.52083 0.3683,0.40181 0.590902,0.91475 0.590902,1.54199 0,2.20768 -1.34373,2.6934599 -2.623961,2.83563 0.206375,0.17744 0.390173,0.5281 0.390173,1.06433 0,0.76799 -0.0071,1.38782 -0.0071,1.57621 0,0.15381 0.103364,0.33267 0.395111,0.27658 C 9.848055,10.43728 11.493058,8.28498 11.493058,5.7467499 11.493058,2.5727999 8.9199,0 5.745959,0"
      style="fill:#1b1817;fill-opacity:1;fill-rule:evenodd;stroke:none;stroke-width:0.352778"
   />
</svg>
